<svg width="149" height="32" viewBox="0 0 103 22" xmlns="http://www.w3.org/2000/svg"><g fill="none" fill-rule="evenodd"><g fill-rule="nonzero"><path d="M102.707 21.051H0V1h102.707v20.051zM2.344 18.641a5.833 5.833 0 0 0 1.833 1.475c1.598.823 3.303.968 5.055.772 2.538-.283 4.405-1.547 5.548-3.842.756-1.518 1.048-3.15 1.15-4.828.114-1.855.001-3.69-.49-5.489-.267-.974-.665-1.89-1.317-2.753C10.548 9.172 6.659 14.06 2.344 18.64zm23.512-8.97c.662-.252 1.11-.665 1.257-1.275.128-.537.2-1.11.161-1.659-.066-.966-.57-1.696-1.509-2.014a5.261 5.261 0 0 0-1.493-.26c-1.095-.037-2.194.006-3.29-.02-.385-.01-.5.099-.497.489.017 2.436.009 4.872.009 7.308 0 .97.003 1.939-.002 2.908-.001.23.02.384.324.376 1.325-.036 2.653-.008 3.975-.082 1.77-.098 2.775-1.149 2.847-2.91.05-1.233-.327-2.238-1.583-2.723-.044-.017-.08-.055-.199-.138zM84.96 3.766V7.53c-.193-.084-.308-.131-.422-.183-1.803-.826-3.662.002-4.23 1.891-.314 1.044-.321 2.12-.184 3.182.08.62.261 1.251.522 1.82.421.921 1.19 1.397 2.228 1.395a2.828 2.828 0 0 0 1.772-.609c.107-.083.218-.162.364-.27l.232.762h.91c.499 0 .5 0 .5-.498V4.269c0-.09.026-.193-.01-.264-.048-.094-.143-.225-.223-.229-.467-.021-.936-.01-1.459-.01zm16.26 11.72c.057.014.081.026.105.027l.803.005c.518 0 .52 0 .52-.516V4.292c0-.101.022-.214-.012-.303-.034-.086-.127-.209-.197-.212-.48-.018-.96-.01-1.506-.01v3.757c-.188-.086-.302-.142-.418-.192-1.43-.612-3.532-.352-4.172 1.824-.452 1.536-.445 3.101.087 4.62.667 1.905 2.624 2.458 4.23 1.238.105-.08.214-.154.355-.256l.206.727zM51.708 11.32c.016.356.025.713.05 1.068.134 1.897 1.31 3.117 3.116 3.24 1.758.12 3.027-.738 3.47-2.397.313-1.173.306-2.37.057-3.554-.26-1.232-.924-2.157-2.199-2.484-.448-.115-.933-.14-1.398-.12-1.17.049-2.06.583-2.602 1.647-.417.819-.497 1.7-.494 2.6zm-21.87-2.596c.169-.028.266-.05.365-.06.58-.063 1.16-.176 1.74-.173 1.214.005 1.795.783 1.528 2.018-.694.075-1.404.135-2.108.23-.892.123-1.655.483-2.007 1.375-.29.732-.287 1.499-.019 2.243.25.695.781 1.1 1.492 1.226.89.158 1.722-.03 2.474-.541l.347-.242c.05.209.069.374.134.517.038.084.147.186.229.19.403.02.807.009 1.225.009.01-.104.02-.165.02-.227 0-1.976.012-3.953-.004-5.93-.008-1.044-.61-1.84-1.606-2.128-1.216-.351-2.422-.165-3.612.167-.082.023-.184.152-.19.237-.022.34-.009.682-.009 1.09zm64.394 6.793c.02-.088.034-.124.034-.16 0-2.016.016-4.031-.007-6.046-.012-1.026-.624-1.798-1.612-2.082-1.218-.35-2.422-.158-3.613.169-.07.02-.17.11-.173.17-.016.374-.008.75-.008 1.159.169-.03.266-.054.364-.064.58-.063 1.161-.172 1.742-.172 1.105 0 1.588.547 1.584 1.65 0 .275-.085.392-.356.414-.609.051-1.22.1-1.824.186-.969.139-1.801.548-2.05 1.565-.14.572-.125 1.217-.029 1.805.128.781.673 1.296 1.456 1.437.452.081.952.09 1.394-.016.529-.127 1.02-.414 1.539-.636.022.07.081.175.085.284.012.288.161.357.425.342.342-.02.686-.005 1.049-.005zm-27.428-1.943c-.504.15-.945.33-1.403.405-1.396.227-2.38-.102-2.87-1.694-.164-.528-.226-1.095-.275-1.649-.098-1.086-.03-2.164.327-3.205.447-1.3 1.357-1.852 2.717-1.662.462.065.921.153 1.429.238 0-.386-.013-.766.005-1.144.011-.236-.079-.372-.303-.395-.78-.083-1.567-.245-2.344-.211-1.442.062-2.535.762-3.179 2.089-.697 1.44-.733 2.983-.613 4.524.062.8.213 1.626.5 2.372.869 2.266 3.673 3.145 5.735 1.852.12-.076.25-.237.262-.368.035-.378.012-.76.012-1.152zm11.42 1.93c.022-.058.038-.08.038-.103.004-2.653.004-5.305.011-7.958 0-.211-.1-.262-.28-.26-.33.002-.663.016-.993-.007-.339-.023-.461.076-.457.444.02 1.797.009 3.596.009 5.394 0 .685 0 .685-.63.945a3.18 3.18 0 0 1-.178.068c-1.174.404-1.743.003-1.744-1.227 0-1.748-.005-3.495.005-5.242.001-.277-.076-.396-.366-.38-.344.018-.689.01-1.033.001-.23-.006-.342.053-.34.32.01 2.016-.01 4.03.011 6.045.012 1.206.686 1.963 1.73 2.058.825.074 1.567-.113 2.23-.613.103-.079.218-.141.367-.236l.049.751h1.571zm-39.058-7.62c-.016-.11-.046-.198-.036-.28.041-.346-.12-.454-.444-.427-.24.02-.486.023-.726 0-.363-.035-.485.097-.482.47.015 1.989.007 3.977.007 5.965 0 .51.014 1.02-.005 1.53-.01.303.098.406.398.38.291-.025.588-.03.878 0 .356.038.456-.094.453-.442-.015-1.72-.006-3.441-.006-5.162 0-1.014.025-1.048 1.005-1.326.037-.01.073-.021.11-.03 1.007-.224 1.491.157 1.493 1.181v5.748h1.687c.016-.06.034-.095.034-.131 0-2.18.02-4.36-.017-6.538-.017-.962-.709-1.68-1.661-1.734-.53-.03-1.086.075-1.604.216-.368.1-.691.363-1.084.58zM50.64 8.7c0-.31-.015-.664.005-1.015.015-.242-.081-.36-.305-.39-.603-.08-1.206-.222-1.81-.22-1.52.004-2.569.847-2.975 2.318-.294 1.061-.271 2.14-.152 3.222.282 2.555 2.819 3.852 5.05 2.575.113-.065.24-.21.251-.33.033-.35.012-.708.012-1.078-.44.13-.847.278-1.265.367-1.06.228-1.828-.116-2.105-1.018a6 6 0 0 1 .012-3.609c.218-.692.754-1.063 1.48-1.034.59.023 1.177.135 1.802.212zm19.439 6.8c0-2.717.002-5.392-.01-8.066-.001-.083-.15-.23-.239-.237-.341-.03-.688.004-1.03-.02-.341-.023-.46.084-.458.447.016 2.496.008 4.993.01 7.49 0 .124.015.247.024.386h1.703zm-.006-11.315h-1.72c0 .46-.007.901.008 1.342.002.07.103.193.161.195.513.016 1.027.009 1.55.009V4.185z" fill="#FFF"/><path d="M2.344 18.641c4.315-4.58 8.204-9.469 11.779-14.665.652.863 1.05 1.779 1.317 2.753.491 1.8.604 3.634.49 5.49-.102 1.678-.394 3.31-1.15 4.827-1.143 2.295-3.01 3.56-5.548 3.842-1.752.196-3.457.051-5.055-.772a5.833 5.833 0 0 1-1.833-1.475z" fill="#17479E"/><path d="M13.694 3.385c-4.316 4.58-8.205 9.47-11.78 14.666-.652-.864-1.05-1.78-1.316-2.754-.491-1.799-.604-3.633-.49-5.489.102-1.678.394-3.31 1.15-4.828 1.143-2.294 3.01-3.559 5.548-3.842 1.752-.195 3.457-.05 5.055.773a5.833 5.833 0 0 1 1.833 1.474z" fill="#00AEEF"/><path d="M25.856 9.671c.118.083.155.121.199.138 1.256.485 1.634 1.49 1.583 2.724-.072 1.76-1.077 2.811-2.847 2.91-1.322.073-2.65.045-3.975.08-.304.009-.325-.145-.324-.375.005-.969.002-1.938.002-2.908 0-2.436.008-4.872-.009-7.308-.002-.39.112-.498.497-.489 1.096.026 2.195-.017 3.29.02.502.018 1.02.099 1.493.26.939.318 1.443 1.048 1.51 2.014a5.585 5.585 0 0 1-.162 1.659c-.147.61-.595 1.023-1.257 1.275zm-3.531.813c0 1.143.004 2.238-.004 3.332-.001.227.101.283.301.28.471-.007.943.014 1.414-.006.853-.038 1.398-.39 1.562-1.09.096-.408.114-.858.056-1.274-.096-.696-.579-1.17-1.267-1.23-.667-.058-1.342-.012-2.062-.012zm0-1.277h1.326c1.158-.001 1.647-.455 1.727-1.603.06-.867-.32-1.552-1.045-1.676-.642-.109-1.307-.08-2.009-.116v3.395zM84.96 3.766c.522 0 .99-.011 1.458.01.08.004.175.135.222.229.037.07.012.174.012.264V15.02c0 .497-.002.497-.5.498h-.911l-.232-.762c-.146.108-.257.187-.364.27a2.828 2.828 0 0 1-1.772.61c-1.039 0-1.807-.475-2.228-1.396a6.455 6.455 0 0 1-.522-1.82c-.137-1.062-.13-2.138.184-3.182.568-1.89 2.427-2.717 4.23-1.89l.422.182V3.766zm-.001 7.49c0-.726.01-1.453-.01-2.178-.003-.136-.098-.348-.203-.39-1.05-.412-2.266-.34-2.717 1.13-.29.945-.276 1.91-.08 2.87.285 1.403 1.428 1.91 2.687 1.214.226-.126.333-.277.328-.543-.015-.7-.005-1.402-.005-2.103zm16.261 4.229l-.206-.727c-.141.102-.25.177-.355.256-1.606 1.22-3.563.667-4.23-1.238-.532-1.519-.54-3.084-.087-4.62.64-2.176 2.742-2.436 4.172-1.824.116.05.23.106.418.192V3.768c.546 0 1.027-.01 1.506.01.07.002.163.125.197.211.034.09.012.202.012.303v10.71c0 .515-.002.516-.52.516-.267 0-.535-.003-.803-.005-.024 0-.048-.013-.104-.028zm-.266-4.197c0-.739.013-1.478-.011-2.216-.005-.14-.124-.357-.241-.401-1.155-.43-2.294-.218-2.696 1.231-.253.913-.234 1.837-.063 2.76.305 1.645 1.637 1.835 2.726 1.205.14-.081.265-.311.272-.478.03-.699.013-1.4.013-2.1zm-49.247.032c-.003-.899.077-1.78.494-2.6.542-1.063 1.432-1.597 2.602-1.646.465-.02.95.005 1.398.12 1.275.327 1.939 1.252 2.199 2.484.25 1.183.256 2.381-.057 3.554-.443 1.659-1.712 2.516-3.47 2.397-1.806-.123-2.982-1.343-3.116-3.24-.025-.355-.034-.712-.05-1.068zm5.157.023l-.055-.014c-.036-.392-.056-.787-.113-1.177a3.614 3.614 0 0 0-.193-.695c-.149-.412-.41-.73-.833-.89-.813-.306-1.654.051-1.942.906-.172.51-.245 1.065-.274 1.605-.04.76-.013 1.529.323 2.243.301.639.806.918 1.508.867.64-.047 1.059-.402 1.223-.984.17-.605.241-1.24.356-1.861zM29.836 8.725c0-.407-.013-.749.01-1.089.005-.085.107-.214.19-.237 1.19-.332 2.395-.518 3.611-.167.997.288 1.598 1.084 1.606 2.129.016 1.976.005 3.953.004 5.93 0 .06-.01.122-.02.226-.418 0-.822.01-1.225-.01-.082-.003-.191-.105-.23-.189-.064-.143-.083-.308-.133-.517-.147.102-.246.173-.347.242-.752.511-1.584.7-2.474.541-.71-.126-1.242-.53-1.492-1.226a3.115 3.115 0 0 1 .019-2.243c.352-.892 1.115-1.252 2.007-1.374.704-.096 1.414-.156 2.108-.23.267-1.236-.314-2.014-1.527-2.02-.58-.002-1.161.111-1.741.174-.099.01-.196.032-.366.06zm3.688 2.91c-.683.106-1.316.147-1.914.313-.535.15-.778.745-.703 1.418.058.529.33.854.847.937.589.095 1.13-.089 1.634-.38a.297.297 0 0 0 .13-.212c.01-.657.006-1.314.006-2.076zm60.706 3.883c-.362 0-.706-.015-1.048.005-.264.015-.413-.054-.425-.342-.004-.109-.063-.215-.085-.284-.52.222-1.01.509-1.539.636-.442.107-.942.097-1.394.016-.783-.141-1.328-.656-1.456-1.437-.096-.588-.111-1.233.029-1.805.249-1.017 1.081-1.426 2.05-1.565.605-.086 1.215-.135 1.824-.186.271-.022.355-.139.356-.413.004-1.104-.48-1.65-1.584-1.651-.58 0-1.161.11-1.742.172-.098.01-.195.034-.364.064 0-.41-.008-.785.008-1.16.002-.06.102-.15.173-.169 1.191-.327 2.395-.52 3.613-.17.988.285 1.6 1.057 1.612 2.083.023 2.015.008 4.03.007 6.046 0 .036-.015.072-.034.16zm-1.694-2.715h-.002c0-.28-.005-.56.002-.839.004-.189-.06-.29-.265-.267-.491.056-.992.068-1.471.175-.678.152-1.037.888-.856 1.639.15.623.677.93 1.381.797a4.61 4.61 0 0 0 .59-.149c.598-.198.62-.235.62-.86v-.496zm-25.733.772c0 .391.023.774-.012 1.152-.012.131-.141.292-.262.368-2.062 1.293-4.866.414-5.736-1.852-.286-.746-.437-1.571-.5-2.372-.12-1.541-.083-3.085.614-4.524.644-1.327 1.737-2.027 3.18-2.09.776-.033 1.562.129 2.343.212.224.023.314.159.303.395-.018.378-.005.758-.005 1.144-.508-.085-.967-.173-1.429-.238-1.36-.19-2.27.362-2.717 1.662-.357 1.04-.425 2.12-.327 3.205.05.554.111 1.12.274 1.65.49 1.591 1.475 1.92 2.871 1.693.458-.075.899-.256 1.403-.405zm11.42 1.93h-1.571l-.049-.751c-.149.095-.264.157-.367.236-.663.5-1.405.687-2.23.613-1.044-.095-1.718-.852-1.73-2.058-.02-2.014-.001-4.03-.011-6.044-.002-.268.11-.327.34-.32.344.009.69.016 1.033-.003.29-.015.367.104.366.381-.01 1.747-.006 3.494-.005 5.242 0 1.23.57 1.631 1.744 1.227.06-.02.12-.044.178-.068.63-.26.63-.26.63-.945 0-1.798.01-3.597-.01-5.394-.003-.368.12-.467.458-.444.33.023.662.009.994.006.18-.001.28.05.28.261-.008 2.653-.008 5.305-.012 7.958 0 .022-.016.045-.038.103zm-39.058-7.62c.393-.217.716-.48 1.084-.58.518-.141 1.073-.246 1.604-.216.952.054 1.644.772 1.66 1.734.038 2.178.017 4.358.018 6.538 0 .036-.018.071-.034.131H41.81V9.744c-.002-1.024-.486-1.405-1.493-1.18a1.488 1.488 0 0 0-.11.029c-.98.278-1.005.312-1.005 1.326 0 1.72-.009 3.441.006 5.162.003.348-.097.48-.453.443a4.675 4.675 0 0 0-.878 0c-.3.025-.409-.078-.398-.381.019-.51.005-1.02.005-1.53 0-1.988.008-3.976-.007-5.965-.003-.373.119-.505.482-.47.24.023.485.02.726 0 .324-.027.485.081.444.427-.01.082.02.17.036.28zm11.476.815c-.625-.077-1.211-.189-1.801-.212-.727-.029-1.263.342-1.481 1.034a6 6 0 0 0-.012 3.609c.277.902 1.045 1.246 2.105 1.018.418-.09.824-.237 1.265-.367 0 .37.021.727-.012 1.079-.011.118-.138.264-.25.329-2.232 1.277-4.769-.02-5.05-2.575-.12-1.082-.143-2.161.15-3.222.407-1.471 1.457-2.314 2.977-2.318.603-.002 1.206.14 1.81.22.223.03.319.148.304.39-.02.351-.005.706-.005 1.015zm19.439 6.8h-1.703c-.009-.14-.024-.262-.024-.386-.002-2.497.006-4.994-.01-7.49-.002-.363.117-.47.458-.447.342.024.689-.01 1.03.02.09.007.238.154.238.237.013 2.674.01 5.349.01 8.066zm-.006-11.315V5.73c-.524 0-1.038.007-1.551-.009-.058-.002-.159-.125-.161-.195-.015-.44-.008-.882-.008-1.342h1.72z" fill="#17479E"/><path d="M22.325 10.484c.72 0 1.395-.046 2.062.012.688.06 1.17.534 1.267 1.23.058.416.04.866-.056 1.275-.164.7-.709 1.051-1.562 1.089-.47.02-.943 0-1.414.006-.2.003-.302-.053-.3-.28.007-1.094.003-2.189.003-3.332zm-.001-1.277V5.812c.702.035 1.367.007 2.009.116.725.124 1.106.81 1.045 1.676-.08 1.148-.569 1.602-1.727 1.603h-1.327zm62.635 2.049c0 .701-.01 1.402.005 2.103.005.266-.102.417-.328.543-1.259.696-2.402.19-2.688-1.214-.195-.96-.209-1.925.08-2.87.452-1.47 1.667-1.542 2.718-1.13.105.042.2.254.203.39.02.725.01 1.452.01 2.178zm15.995.032c0 .7.018 1.402-.013 2.101-.007.167-.132.397-.272.478-1.09.63-2.42.44-2.726-1.206-.171-.922-.19-1.846.063-2.759.402-1.45 1.541-1.662 2.696-1.231.117.044.236.26.24.401.025.738.012 1.477.012 2.216zm-44.09.055c-.115.622-.186 1.256-.356 1.861-.164.582-.583.937-1.223.984-.702.051-1.207-.228-1.508-.867-.336-.714-.363-1.482-.323-2.243.029-.54.102-1.096.274-1.605.288-.855 1.13-1.212 1.942-.906.423.16.684.478.833.89.082.226.159.46.193.695.057.39.077.785.113 1.177l.055.014zm-23.34.292c0 .762.004 1.419-.006 2.076a.297.297 0 0 1-.13.212c-.505.291-1.045.475-1.634.38-.516-.083-.789-.408-.847-.937-.075-.673.168-1.269.703-1.418.598-.166 1.231-.207 1.914-.313zm59.012 1.168v.495c0 .626-.023.663-.621.861a4.61 4.61 0 0 1-.59.149c-.704.133-1.231-.174-1.381-.797-.181-.75.178-1.487.856-1.639.48-.107.98-.119 1.47-.175.205-.023.27.078.266.267-.007.28-.002.56-.002.839h.002z" fill="#FFF"/></g><path d="M0 0h103v22H0z"/></g></svg>