<svg width="104" height="32" viewBox="0 0 131 40" xmlns="http://www.w3.org/2000/svg" xmlns:xlink="http://www.w3.org/1999/xlink"><defs><path id="a" d="M.021 11.262h7.67V.041H.02z"/></defs><g fill="none" fill-rule="evenodd"><path d="M1.796 19.072h1.167c1.107 0 2.577-.29 2.577-1.98 0-1.537-1.41-1.75-2.304-1.75h-1.44v3.73zm-.03 5.07h1.091c1.41 0 3-.38 3-2.07 0-1.888-1.62-2.087-3.167-2.087h-.924v4.157zM.72 14.428h2.516c1.728 0 3.35.578 3.35 2.62 0 1.354-.622 2.16-1.925 2.42v.03c1.334.244 2.243 1.127 2.243 2.528 0 2.314-1.88 3.03-4.078 3.03H.72V14.428zm12.76 6.715h-.273c-1.652 0-3.623.167-3.623 1.873 0 1.02.728 1.4 1.607 1.4 2.243 0 2.289-1.964 2.289-2.801v-.472zm.091 2.664h-.03c-.425.929-1.5 1.431-2.456 1.431-2.197 0-2.546-1.491-2.546-2.192 0-2.604 2.758-2.725 4.759-2.725h.182v-.396c0-1.325-.47-1.995-1.758-1.995-.804 0-1.561.183-2.274.64v-.93c.59-.289 1.592-.533 2.274-.533 1.91 0 2.713.869 2.713 2.894v3.425c0 .625 0 1.097.075 1.63h-.939v-1.249zm3.135-4.689c0-.594 0-1.203-.06-1.828h.924v1.386h.03c.319-.7.894-1.568 2.502-1.568 1.909 0 2.636 1.279 2.636 2.984v4.964h-.954v-4.72c0-1.462-.515-2.406-1.834-2.406-1.743 0-2.29 1.538-2.29 2.832v4.294h-.954v-5.938zm13.457-.792c-.515-.228-1.137-.396-1.652-.396-1.864 0-2.91 1.355-2.91 3.243 0 1.766 1.06 3.243 2.804 3.243.606 0 1.167-.137 1.743-.35l.09.898c-.65.229-1.257.274-1.985.274-2.485 0-3.698-1.903-3.698-4.065 0-2.39 1.531-4.065 3.82-4.065.924 0 1.59.213 1.864.304l-.076.914zm4.712 6.09c1.668 0 2.562-1.446 2.562-3.243s-.894-3.243-2.562-3.243c-1.667 0-2.561 1.446-2.561 3.243s.894 3.243 2.56 3.243m0-7.309c2.501 0 3.609 1.95 3.609 4.066 0 2.116-1.108 4.065-3.608 4.065s-3.607-1.949-3.607-4.065c0-2.117 1.106-4.066 3.607-4.066m12.501 7.309c1.697 0 2.289-1.827 2.289-3.243s-.592-3.243-2.289-3.243c-1.819 0-2.289 1.736-2.289 3.243 0 1.508.47 3.243 2.289 3.243zm3.243.64h-.954v-1.234h-.03c-.516.99-1.304 1.416-2.41 1.416-2.123 0-3.184-1.766-3.184-4.065 0-2.36.91-4.066 3.183-4.066 1.516 0 2.274 1.113 2.41 1.493h.03v-4.964h.955v11.42zm7.016-4.431c0-1.355-.546-2.695-1.97-2.695-1.41 0-2.274 1.416-2.274 2.695h4.244zm.47 4.187c-.668.274-1.531.426-2.244.426-2.56 0-3.516-1.735-3.516-4.065 0-2.375 1.304-4.065 3.259-4.065 2.183 0 3.077 1.766 3.077 3.852v.487h-5.29c0 1.645.88 2.969 2.546 2.969.697 0 1.713-.289 2.168-.578v.974z" fill="#767669"/><path fill="#FEC252" d="M64.74 14.428h2.122v8.952h4.107v1.676H64.74zm10.123 9.318c.621 0 1.107-.274 1.425-.7.334-.442.424-1.005.424-1.614h-.88c-.908 0-2.257.152-2.257 1.355 0 .67.56.96 1.288.96zm-2.38-6.12a6.96 6.96 0 0 1 2.714-.594c2.38 0 3.365.99 3.365 3.304v1.005c0 .792.015 1.385.03 1.964.015.594.045 1.141.09 1.75h-1.788c-.076-.41-.076-.928-.09-1.172h-.031c-.47.868-1.486 1.355-2.41 1.355-1.38 0-2.728-.837-2.728-2.329 0-1.172.56-1.858 1.333-2.238.773-.381 1.774-.457 2.623-.457h1.121c0-1.264-.56-1.69-1.758-1.69-.864 0-1.728.335-2.41.853l-.06-1.752zm14.411 1.72h.742c1.061 0 2.017-.35 2.017-1.584 0-1.233-.925-1.66-2.017-1.66h-.742v3.244zm-2.122-4.918h2.683c2.304 0 4.41.67 4.41 3.213 0 2.481-1.804 3.38-4.077 3.38h-.894v4.035h-2.122V14.428zm11.153 9.318c.621 0 1.107-.274 1.425-.7.334-.442.425-1.005.425-1.614h-.88c-.91 0-2.258.152-2.258 1.355 0 .67.56.96 1.288.96zm-2.38-6.12a6.96 6.96 0 0 1 2.714-.594c2.38 0 3.365.99 3.365 3.304v1.005c0 .792.015 1.385.03 1.964.015.594.045 1.141.09 1.75h-1.788c-.075-.41-.075-.928-.09-1.172h-.03c-.471.868-1.486 1.355-2.411 1.355-1.38 0-2.728-.837-2.728-2.329 0-1.172.56-1.858 1.334-2.238.773-.381 1.773-.457 2.622-.457h1.122c0-1.264-.561-1.69-1.759-1.69-.864 0-1.727.335-2.41.853l-.06-1.752zm8.047-.412h1.895v1.097h.03c.636-.96 1.561-1.28 2.319-1.28 1.091 0 1.864.411 2.304 1.386.47-.944 1.485-1.386 2.44-1.386 1.925 0 2.47 1.325 2.47 3.076v4.949h-2.03V20.38c0-.73 0-1.766-1.168-1.766-1.348 0-1.515 1.614-1.515 2.634v3.807h-2.031V20.38c0-.73 0-1.766-1.167-1.766-1.349 0-1.516 1.614-1.516 2.634v3.807h-2.03v-7.842z"/><g transform="translate(115.072 16.99)"><mask id="b" fill="#fff"><use xlink:href="#a"/></mask><path d="M2.067 4.122c0 1.111.44 2.543 1.788 2.543 1.335 0 1.713-1.462 1.713-2.543 0-1.051-.363-2.498-1.682-2.498-1.303 0-1.819 1.401-1.819 2.498zM.021.224h1.94v1.111h.03C2.447.574 3.22.041 4.418.041 6.81.04 7.69 1.96 7.69 4.12c0 2.148-.879 4.127-3.319 4.127-.864 0-1.576-.213-2.289-1.082h-.03v4.097H.023V.223z" fill="#FEC252" mask="url(#b)"/></g><path d="M127.079 23.746c.621 0 1.107-.274 1.425-.7.333-.442.424-1.005.424-1.614h-.88c-.908 0-2.257.152-2.257 1.355 0 .67.56.96 1.288.96zm-2.38-6.12a6.96 6.96 0 0 1 2.714-.594c2.379 0 3.364.99 3.364 3.304v1.005c0 .792.016 1.385.03 1.964.016.594.046 1.141.091 1.75h-1.788c-.076-.41-.076-.928-.091-1.172h-.03c-.47.868-1.486 1.355-2.41 1.355-1.38 0-2.728-.837-2.728-2.329 0-1.172.56-1.858 1.333-2.238.773-.381 1.774-.457 2.623-.457h1.121c0-1.264-.56-1.69-1.758-1.69-.864 0-1.728.335-2.41.853l-.06-1.752z" fill="#FEC252"/></g></svg>