<svg width="61" height="32" viewBox="0 0 77 40" xmlns="http://www.w3.org/2000/svg"><g fill="none"><g fill="#98C21F"><path d="M16.143 16.8c1.661 0 3.008-1.37 3.008-3.045 0-1.675-1.347-3.035-3.008-3.035h-1.095c-.302 0-.668.265-.668.677v4.747c0 .304.278.657.704.657h1.059z"/><path d="M25.078 16.27c-.027-.01-.076-.02-.117.075-2.678 6.554-10.093 5.518-10.093 5.518-.303-.016-.524.113-.54.4v4.924c.005.316-.196.381-.392.408-4.762.169-5.987-3.04-6.007-5.25-.005-.605-.033-1.04-.033-1.114V8.477c0-.298.227-.406.42-.406h2.556c.733.003.92-.072 1.337-.468l2.075-2.268c.228-.287-.144-.26-.144-.26H2.847c-1.521 0-1.841 1.077-1.841 1.718V22.27c.02 1.711-.068 11.47 11.157 11.47h10.678c1.718 0 2.296-1.163 2.296-2.142v-15.2s.005-.107-.059-.128"/></g><path d="M31.6 14.83c0-.403.25-.667.662-.667h2.624c1.775 0 2.65.907 2.65 2.267 0 .894-.387 1.512-.987 1.826v.026c.625.251 1.137.97 1.137 1.977 0 1.613-1.075 2.47-2.85 2.47h-2.574c-.413 0-.663-.253-.663-.656V14.83zm3.249 2.897c.75 0 1.212-.453 1.212-1.12 0-.68-.462-1.134-1.212-1.134h-1.7c-.05 0-.075.025-.075.075v2.104c0 .05.025.076.075.076h1.7zm-1.7 3.691h1.775c.825 0 1.287-.478 1.287-1.196 0-.706-.462-1.185-1.287-1.185h-1.775c-.05 0-.075.026-.075.076v2.23c0 .05.025.075.075.075zm10.861.718c0 .378-.3.655-.7.655-.25 0-.45-.088-.587-.29l-.2-.302h-.013c-.35.416-.962.668-1.774.668-1.425 0-2.187-.68-2.187-1.84 0-1.31.912-1.94 2.4-1.94h1.237c.05 0 .075-.024.075-.075v-.15c0-.706-.4-1.122-1.35-1.122a2.68 2.68 0 0 0-1.1.252.983.983 0 0 1-.362.075c-.338 0-.575-.226-.575-.579 0-.202.1-.428.35-.554.387-.227 1.012-.416 1.837-.416 1.712 0 2.524.857 2.524 2.355v1.915c0 .315.038.441.125.605l.188.327a.873.873 0 0 1 .112.416zm-1.75-1.373v-.541c0-.05-.025-.076-.075-.076h-1c-.924 0-1.3.264-1.3.819 0 .504.363.756 1.05.756.813 0 1.325-.315 1.325-.958zm4.175-3.539c.312-.441.875-.706 1.587-.706 1.288 0 2.087.958 2.087 2.255v3.275c0 .466-.287.743-.7.743-.412 0-.7-.277-.7-.743v-2.947c0-.782-.374-1.323-1.137-1.323-.737 0-1.15.541-1.15 1.323v2.947c0 .466-.287.743-.7.743-.412 0-.7-.277-.7-.743v-4.711c0-.466.288-.743.7-.743.413 0 .638.264.7.63h.013zm4.962 3.967c-.126-.378-.188-.856-.188-1.499 0-.642.062-1.12.188-1.498.35-1.084 1.262-1.676 2.474-1.676.85 0 1.525.34 1.9.768.187.202.25.366.25.555a.6.6 0 0 1-.613.617c-.212 0-.387-.114-.574-.302-.225-.252-.513-.378-.95-.378-.538 0-.95.264-1.125.793-.1.303-.125.655-.125 1.121 0 .467.025.82.125 1.121.175.53.587.794 1.125.794.437 0 .725-.126.95-.378.187-.189.362-.302.574-.302a.6.6 0 0 1 .613.617c0 .189-.063.353-.25.554-.375.429-1.05.769-1.9.769-1.212 0-2.125-.592-2.474-1.676zm5.623 0c-.137-.428-.2-.83-.2-1.499 0-.667.063-1.07.2-1.498.338-1.059 1.263-1.676 2.488-1.676 1.212 0 2.137.617 2.474 1.676.138.428.2.83.2 1.498s-.062 1.071-.2 1.5c-.337 1.057-1.262 1.675-2.474 1.675-1.225 0-2.15-.618-2.487-1.676zm3.613-.377c.1-.315.125-.605.125-1.121 0-.517-.025-.794-.125-1.121-.175-.504-.563-.794-1.125-.794s-.962.29-1.137.794c-.1.327-.125.604-.125 1.12 0 .517.025.807.125 1.122.175.503.575.793 1.137.793s.95-.29 1.125-.793zm-28.921 4.863c0-.302.188-.503.5-.503h2.625c1.7 0 2.724 1.032 2.724 2.557 0 1.524-1.025 2.557-2.724 2.557H32.9c-.05 0-.075.025-.075.075v2.835c0 .377-.225.604-.55.604-.338 0-.563-.227-.563-.604v-7.52zm4.75 2.054c0-.933-.613-1.512-1.663-1.512h-1.9c-.05 0-.075.025-.075.076v2.872c0 .05.025.075.075.075h1.9c1.05 0 1.662-.58 1.662-1.511zm2.148 5.504V28.21c0-.352.226-.567.526-.567.3 0 .525.214.525.567v.277h.013c.25-.541.8-.92 1.537-.92.412 0 .687.102.887.215.212.113.3.277.3.453 0 .303-.212.53-.525.53a.722.722 0 0 1-.263-.064 1.82 1.82 0 0 0-.687-.15c-.9 0-1.262.755-1.262 1.763v2.922c0 .353-.225.567-.525.567-.3 0-.525-.214-.525-.567zm4.225-.982c-.137-.416-.2-.831-.2-1.537 0-.693.063-1.108.2-1.524.325-1.033 1.2-1.625 2.363-1.625 1.162 0 2.037.592 2.362 1.625.137.416.2.831.2 1.524 0 .706-.063 1.121-.2 1.537-.325 1.02-1.2 1.625-2.362 1.625-1.163 0-2.038-.605-2.363-1.625zm3.713-.302c.1-.328.137-.655.137-1.235 0-.58-.037-.894-.137-1.222-.2-.604-.688-.945-1.35-.945-.663 0-1.15.34-1.35.945-.1.328-.138.643-.138 1.222 0 .58.038.907.138 1.235.2.604.687.944 1.35.944.662 0 1.15-.34 1.35-.944zm3.649 1.196l-1.812-4.736a.702.702 0 0 1-.05-.265c0-.277.2-.503.512-.503.25 0 .413.15.5.377l1.55 4.195h.025l1.512-4.195c.088-.226.25-.377.5-.377.312 0 .513.226.513.503a.704.704 0 0 1-.05.265l-1.825 4.736c-.188.492-.35.655-.687.655-.338 0-.5-.164-.688-.655zm4.074-7.344a.688.688 0 1 1 1.375 0 .696.696 0 0 1-.687.693.696.696 0 0 1-.688-.693zm.163 2.406c0-.352.225-.567.525-.567.3 0 .525.214.525.567v5.026c0 .353-.225.567-.525.567-.3 0-.525-.214-.525-.567V28.21zm2.624.001c0-.353.225-.568.525-.568.3 0 .525.214.525.567v.177h.013c.287-.466.862-.82 1.674-.82 1.3 0 2.075.895 2.075 2.268v3.401c0 .353-.225.567-.525.567-.3 0-.525-.214-.525-.567v-3.149c0-.97-.437-1.537-1.337-1.537-.813 0-1.375.58-1.375 1.474v3.212c0 .353-.225.567-.525.567-.3 0-.525-.214-.525-.567V28.21zm6.149 4.043c-.112-.365-.187-.857-.187-1.537 0-.667.075-1.159.187-1.524.338-1.046 1.213-1.625 2.362-1.625.9 0 1.538.39 1.913.882.1.138.15.252.15.39 0 .265-.2.466-.463.466-.187 0-.325-.1-.462-.252-.275-.302-.6-.504-1.138-.504-.65 0-1.137.315-1.337.945-.1.315-.137.693-.137 1.222 0 .542.037.92.137 1.235.2.63.688.945 1.337.945.538 0 .863-.202 1.138-.504.137-.151.275-.252.462-.252.263 0 .463.201.463.466 0 .139-.05.252-.15.39-.375.492-1.013.882-1.913.882-1.15 0-2.024-.58-2.362-1.625zm5.437-6.45a.688.688 0 1 1 1.374 0 .696.696 0 0 1-.687.693.696.696 0 0 1-.687-.693zm.162 2.406c0-.352.225-.567.525-.567.3 0 .525.214.525.567v5.026c0 .353-.225.567-.525.567-.3 0-.525-.214-.525-.567V28.21zm7.524 5.089c0 .29-.225.504-.538.504-.187 0-.337-.088-.462-.264l-.238-.378h-.012c-.4.453-.962.718-1.837.718-1.337 0-2.112-.668-2.112-1.814 0-1.247.85-1.864 2.337-1.864h1.362c.05 0 .075-.025.075-.076v-.29c0-.844-.387-1.322-1.437-1.322a2.83 2.83 0 0 0-1.225.302.732.732 0 0 1-.3.088c-.275 0-.45-.176-.45-.453 0-.164.075-.328.25-.429.375-.251 1-.453 1.825-.453 1.6 0 2.35.768 2.35 2.255v2.166c0 .315.024.441.112.617l.212.391c.05.088.088.202.088.302zm-1.425-1.511v-.668c0-.05-.025-.075-.075-.075h-1.2c-1.025 0-1.487.302-1.487.982 0 .63.45.945 1.25.945.925 0 1.512-.441 1.512-1.184z" fill="#5C5B5F"/></g></svg>