<svg xmlns="http://www.w3.org/2000/svg" height="32" width="64" viewBox="0 0 484.6 241.6" id="Capa_1"><style id="style10">.st1{fill:#db0011}</style><g transform="translate(-131.9 -130.2)" id="g58"><g id="g36"><g id="g24"><path id="rect12" fill="#fff" d="M197.1 130.2h130.4v130.4H197.1z"/><g id="g22"><path id="polygon14" class="st1" d="M327.5 260.6l65.2-65.2-65.2-65.2z"/><path id="polygon16" class="st1" d="M197.1 130.2l65.2 65.2 65.2-65.2z"/><path id="polygon18" class="st1" d="M197.1 130.2l-65.2 65.2 65.2 65.2z"/><path id="polygon20" class="st1" d="M327.5 260.6l-65.2-65.2-65.2 65.2z"/></g></g><g id="g34"><path id="polygon26" d="M426.3 222.7h-11.9v-54.6h11.9v22.3h23.6v-22.3h11.9v54.6h-11.9v-23.4h-23.6z"/><path id="path28" d="M490.2 223.7c-11.8 0-21.5-4.7-21.7-17.7h11.9c.2 5.8 3.6 9.3 10 9.3 4.8 0 10.3-2.4 10.3-7.9 0-4.2-3.7-5.6-9.8-7.3L487 199c-8.6-2.5-17.1-5.8-17.1-15.6 0-12.2 11.3-16.2 21.7-16.2 10.7 0 19.8 3.7 19.9 15.8h-11.9c-.5-5-3.3-7.9-8.9-7.9-4.4 0-8.8 2.3-8.8 7.2 0 4 3.6 5.2 11.3 7.6l4.5 1.4c9.4 2.9 15.3 6.2 15.3 15.3-.1 12.3-12.1 17.1-22.8 17.1"/><path id="path30" d="M519.6 168.1h19c6 0 8.4.2 10.7.7 6.6 1.5 11.6 5.8 11.6 13.1 0 7-4.5 10.7-10.9 12.3 7.4 1.4 12.8 5.1 12.8 13.2 0 12.4-12.2 15.3-21.8 15.3h-21.5v-54.6zm19.1 22.7c5.2 0 10.5-1.1 10.5-7.4 0-5.7-5-7.2-9.7-7.2h-8.3v14.6zm1.1 23.7c5.5 0 11-1.3 11-7.9 0-6.5-4.7-8-10.3-8h-9.4v15.9z"/><path id="path32" d="M593.8 223.7c-17.6 0-25.5-11.3-25.5-27.9 0-16.5 8.8-28.8 26.1-28.8 10.9 0 21.5 4.8 21.8 17.2H604c-.6-5.4-4.2-8.3-9.5-8.3-10.6 0-13.9 11.5-13.9 20.2s3.3 18.8 13.5 18.8c5.4 0 9.3-2.9 10.1-8.4h12.3c-1.4 12.5-11.4 17.2-22.7 17.2"/></g></g><g id="g56"><path id="path38" d="M351.8 353.3c-2.2.9-5.1 1.3-8.1 1.3h-8v16.6h-9.3v-42.6h15.8c3.9 0 8.1.2 11.6 2.5 3.7 2.5 5.4 6.4 5.4 10.8 0 5-2.7 9.4-7.4 11.4zM341.1 335h-5.4v13h4.8c4.7 0 9.4-1.1 9.4-6.7-.1-5.3-4.4-6.3-8.8-6.3z"/><path id="path40" d="M374.4 371.8c-9.9 0-16.1-5.7-16.1-15.7 0-9.9 6.7-15.6 16.3-15.6 9.8 0 16 5.7 16 15.6 0 10-6.4 15.7-16.2 15.7zm0-26c-5.8 0-7.1 5.7-7.1 10.4s1.4 10.5 7.1 10.5c5.7 0 7.3-5.8 7.3-10.5 0-4.8-1.5-10.4-7.3-10.4z"/><path id="path42" d="M425.6 371.1l-7.1-22.5-7.5 22.5h-9.2l-10.5-29.7h9.3l6.1 22.6 7.3-22.6h9.7l6.8 22.6 6.3-22.6h8.1l-10.2 29.7z"/><path id="path44" d="M461 366.6c3.5 0 5.5-1.7 6-5.2h8.4c-1.1 7.7-7.5 10.3-14.4 10.3-9.6 0-15.1-5.4-15.1-15 0-9.9 5.2-16.2 15.4-16.2 5.8 0 10.8 2.4 13.1 7.9 1.2 2.9 1.3 5.9 1.3 9.4h-21.5c-.1 4.6 1.8 8.8 6.8 8.8zm.2-20.9c-4.2 0-6.8 3.1-6.8 7.3h13c-.1-4.5-2.1-7.3-6.2-7.3z"/><path id="path46" d="M497.3 348.6c-5.5 0-7.7 3.2-7.7 8.5v14H481v-22.5c0-2.4-.2-4.8-.2-7.3h8.3l.2 5.5c1.9-3.9 4.9-5.7 9.2-5.7.5 0 .9 0 1.4.1v7.5c-1 0-1.8-.1-2.6-.1z"/><path id="path48" d="M520.6 371.7c-12.9 0-18-9.8-18-21.5 0-11.9 6-22.3 18.4-22.3 4.5 0 9 1.3 11.8 5.1 1.2 1.7 2.1 3.7 2.2 5.8h-4.1c-.5-5.2-5.1-7.5-9.9-7.5-10.2 0-14.2 9.7-14.2 18.5 0 9.1 3.4 18.6 14 18.6 4.6 0 9.4-2.7 10.1-7.7h4.2c-1.3 7-7 11-14.5 11z"/><path id="path50" d="M560.7 366.8c-2.5 3.8-5.5 5-10 5-5.4 0-10.4-2.7-10.4-8.7 0-9.5 11.1-9.8 18.4-9.8h1.5c.1-.7.1-1.4.1-2.1 0-5.1-2-7.7-7.3-7.7-3.8 0-6.4 1.2-6.9 5.5h-3.5c.1-6 5.2-8.2 10.4-8.2 7.4 0 10.8 3.1 10.8 10.4v8.8c0 3.7.2 7.3.6 11h-3.3c-.1-1.3-.3-2.8-.4-4.2zm-3.3-11c-5 0-13.4.3-13.4 7.1 0 4.1 3.6 6.3 7.4 6.3 8.5 0 9-6.7 9-13.3-1 0-2-.1-3-.1z"/><path id="path52" d="M585 344.7c-6.4 0-8.4 3.7-8.4 9.6v16.9H573v-21c0-2.9-.1-5.8-.2-8.7h3.5l.2 4.7c2.2-3.4 5.1-4.8 9.1-4.8.5 0 1.1.1 1.7.1v3.6c-.7-.4-1.5-.4-2.3-.4z"/><path id="path54" d="M612.6 366.2c-2.5 3.8-5.1 5.4-9.7 5.4-9 0-12.9-7.6-12.9-15.7 0-7.7 4.1-15.1 12.6-15.1 4.7 0 7.7 1.7 10 5.8v-18.2h3.6v33.7c0 2.9 0 6 .2 8.9h-3.5zm-9.7-22.5c-7 0-9.1 6.7-9.1 12.6 0 6.2 2.5 12.5 9.7 12.5 7 0 9.1-6.5 9.1-12.4 0-6.2-2.6-12.7-9.7-12.7z"/></g></g></svg>