<svg width="72" height="32" viewBox="0 0 91 40" xmlns="http://www.w3.org/2000/svg"><path d="M88.375 21.397c0-.346.02-.694-.004-1.038-.064-.856-.233-1.687-.717-2.419a2.08 2.08 0 0 0-2.146-.877c-.833.166-1.352.696-1.68 1.444-.497 1.138-.53 2.343-.502 3.555.02.844.117 1.677.449 2.466.272.649.674 1.165 1.386 1.358 1.137.307 2.15-.16 2.668-1.218.507-1.035.581-2.146.546-3.27m-.096-4.2V12h2.174v15.106h-2.117v-1.433a9.855 9.855 0 0 0-.079-.03c-.084.099-.175.192-.25.297-1.178 1.645-3.558 1.723-4.897.825-.827-.555-1.305-1.376-1.59-2.296-.592-1.901-.604-3.817.025-5.716a4.833 4.833 0 0 1 1.236-1.962c1.095-1.07 3.257-1.129 4.339-.513.336.192.608.497.906.753.065.056.118.126.176.19l.077-.024m-84.924-.15h-.001c0 .9.003 1.8-.003 2.7-.001.183.041.27.246.265.464-.014.93.016 1.393-.013.786-.05 1.488-.297 1.98-.966.656-.89.77-1.884.557-2.936-.219-1.073-1.007-1.843-2.092-1.98-.594-.074-1.202-.036-1.803-.064-.23-.011-.283.08-.281.293.01.9.004 1.8.004 2.7m.063 10.067H1V13.07c.048-.003.116-.012.183-.012 1.512 0 3.025-.008 4.537.008.766.009 1.518.152 2.212.489 1.346.652 2.02 1.747 2.052 3.24.043 2.091-1.071 3.488-3.198 4.043-.96.25-1.938.228-2.916.23-.59 0-.514-.08-.515.522a846.599 846.599 0 0 0 0 4.84c.001.216.039.431.063.683m51.777-.005H53.01c0-2.508-.037-5.009.014-7.508.03-1.51-.88-2.314-2.37-2.209-1.315.093-2.2.933-2.27 2.254-.062 1.135-.045 2.275-.053 3.412-.007.94-.002 1.881-.002 2.822v1.23h-2.15V16.165h2.072v1.394l.076.025c.053-.06.112-.117.157-.183.674-1.002 1.649-1.456 2.82-1.485.557-.014 1.133.016 1.672.144 1.362.322 2.163 1.378 2.167 2.782.008 2.475.001 4.95.005 7.425 0 .274.03.548.047.841m-31.402-5.502c-.027-.384-.039-.77-.085-1.152-.117-.968-.33-1.908-.919-2.718-.723-.997-2-1.243-3.048-.603-.787.481-1.118 1.261-1.36 2.083-.323 1.094-.329 2.225-.243 3.352.065.862.257 1.694.665 2.472.592 1.128 1.772 1.662 2.873 1.256.856-.315 1.328-.992 1.632-1.809.344-.928.464-1.894.485-2.88m2.222-.001c-.026 1.3-.241 2.544-.984 3.645-.854 1.262-2.051 1.96-3.564 2.039a7.601 7.601 0 0 1-1.966-.144c-1.45-.31-2.423-1.258-3.014-2.58-.758-1.698-.852-3.466-.304-5.238.68-2.2 2.34-3.396 4.646-3.433 1.22-.02 2.358.23 3.311 1.047.998.855 1.538 1.966 1.739 3.248.073.467.092.943.136 1.416m14.327-1.303v.001c.79 0 1.58.002 2.37-.001.117-.001.288.042.26-.175-.085-.665-.156-1.333-.482-1.942-.888-1.661-2.94-1.81-4.03-.275-.455.641-.655 1.385-.755 2.159-.03.229.103.235.267.234.79-.002 1.58 0 2.37 0m4.09 4.82c.087.38.186.76.25 1.147.013.071-.093.202-.176.245a7.01 7.01 0 0 1-2.478.759c-1.138.12-2.27.083-3.365-.298-1.528-.532-2.519-1.596-2.97-3.144-.457-1.562-.407-3.13.086-4.675.642-2.01 2.378-3.229 4.6-3.265 1.007-.016 1.97.142 2.821.728 1.123.774 1.647 1.913 1.905 3.2.076.377.085.766.138 1.147.031.222-.043.305-.268.298-.386-.012-.771-.003-1.157-.003l-5.693-.001c-.503 0-.51-.002-.494.514.031.975.147 1.932.59 2.822.53 1.061 1.411 1.588 2.564 1.707 1.234.128 2.315-.26 3.297-.981.088-.064.176-.128.266-.19.013-.009.036-.004.084-.01m28.183-4.837c.134.007.239.017.344.017h1.927c.908 0 1.817.002 2.726-.002.126 0 .304.05.282-.185-.072-.784-.21-1.551-.664-2.218-.839-1.23-2.498-1.42-3.523-.389-.75.754-.987 1.725-1.092 2.777m7.597.976h-7.279c-.414 0-.42.003-.396.411.048.83.119 1.656.396 2.449.568 1.62 1.846 2.27 3.434 2.2 1.108-.049 2.054-.52 2.961-1.246.077.314.146.59.21.867.112.473.113.479-.335.68-1.802.812-3.661.949-5.545.367-1.78-.55-2.786-1.844-3.177-3.623a8.172 8.172 0 0 1 .016-3.508c.566-2.602 2.505-4.068 5.193-3.964 2.319.09 3.843 1.439 4.3 3.82.095.492.143.992.222 1.547M34.494 16.16h1.038l-4.08 10.963c-.473 0-.994.004-1.515-.007-.053-.001-.128-.086-.15-.148-.702-1.931-1.396-3.865-2.095-5.797-.538-1.487-1.08-2.973-1.621-4.458-.064-.174-.141-.343-.233-.565h1.442c.306.001.687-.103.897.04.2.136.22.535.32.817l2.6 7.256c.047.13.101.256.224.401l3.173-8.502m29.661 8.95c0 .48.008.886-.006 1.29-.003.078-.072.19-.14.221-1.559.733-3.168.974-4.83.406-1.48-.506-2.341-1.616-2.766-3.068-.498-1.701-.467-3.413.217-5.058.7-1.685 2.004-2.656 3.809-2.933 1.174-.181 2.322-.039 3.455.3.21.062.275.16.266.372-.016.403-.005.807-.005 1.268-.236-.169-.43-.314-.63-.448-1.002-.668-2.057-.83-3.172-.309-.61.285-1.008.785-1.307 1.37-.738 1.436-.789 2.967-.54 4.516.085.539.278 1.072.496 1.575.687 1.583 2.29 1.93 3.625 1.433.444-.165.835-.477 1.248-.725.08-.049.152-.114.28-.21M11.11 16.164h2.132v1.196l.068.049c.475-1.257 1.52-1.443 2.662-1.51v1.605c-.324.028-.632.026-.928.085-1.07.213-1.708.96-1.726 2.098-.033 2.206-.031 4.412-.038 6.618 0 .255.036.511.056.792H11.11V16.164zm54.404 0h2.094v1.21l.08.073c.477-1.27 1.517-1.49 2.68-1.545v1.606c-.296.022-.592.02-.878.07-1.057.183-1.69.906-1.773 2.031a21.511 21.511 0 0 0-.044 1.511 894.713 894.713 0 0 0 0 5.223c0 .246.038.492.06.758h-2.219V16.164z" fill="#037A3E" fill-rule="evenodd"/></svg>